<svg xmlns="http://www.w3.org/2000/svg" viewBox="0 0 200.69 201.42"><defs><style>.cls-1{fill:#fff;}.cls-2{fill:#fcd15a;}</style></defs><g id="Calque_2" data-name="Calque 2"><g id="Calque_1-2" data-name="Calque 1"><path class="cls-1" d="M0,192.22H11.54V174.65H.82V166.4H20.18v25.82h9.89v8.24H0Zm22.31-35.91a6.56,6.56,0,0,1-.51,2.58,6.05,6.05,0,0,1-1.41,2.05,6.67,6.67,0,0,1-2.09,1.38,6.36,6.36,0,0,1-2.51.51,6.3,6.3,0,0,1-2.54-.51,6.9,6.9,0,0,1-2.06-1.38,6.35,6.35,0,0,1-1.41-2.05,6.76,6.76,0,0,1,0-5.15,6.39,6.39,0,0,1,1.41-2.06,7.06,7.06,0,0,1,2.06-1.37,6.14,6.14,0,0,1,2.54-.52,6.2,6.2,0,0,1,2.51.52,6.83,6.83,0,0,1,2.09,1.37,6.09,6.09,0,0,1,1.41,2.06A6.51,6.51,0,0,1,22.31,156.31Z"/><path class="cls-1" d="M41.68,152.4H72v8.65H50.74v11H71.2v8.65H50.74v11.12H72.85v8.65H41.68Z"/><path class="cls-1" d="M106,166.4h9.54l-8.24,16v1.24L116,200.46h-10l-6.39-13.32H98.46l-6.39,13.32H82.12l8.72-16.82V182.4l-8.31-16h9.61l6.32,12.5h1.23Z"/><path class="cls-1" d="M133.06,186.24a6.82,6.82,0,0,0,.72,2.79,6.62,6.62,0,0,0,1.79,2.19,8.49,8.49,0,0,0,2.61,1.45,9.45,9.45,0,0,0,3.12.51,9,9,0,0,0,4.94-1.13,6.64,6.64,0,0,0,2.47-2.72l7.42,4.13a14.56,14.56,0,0,1-1.72,2.71,11.72,11.72,0,0,1-2.85,2.57,15.94,15.94,0,0,1-4.25,1.93,20.57,20.57,0,0,1-5.87.75,19.18,19.18,0,0,1-7-1.23,15.64,15.64,0,0,1-5.45-3.57,16,16,0,0,1-3.57-5.7,21.42,21.42,0,0,1-1.27-7.63v-.41a18.49,18.49,0,0,1,1.33-7.14,16.26,16.26,0,0,1,3.68-5.49,16.81,16.81,0,0,1,5.46-3.54,17.7,17.7,0,0,1,6.69-1.27,17,17,0,0,1,7.55,1.55,16.19,16.19,0,0,1,5.22,3.91,15.45,15.45,0,0,1,3,5.22,17.27,17.27,0,0,1,1,5.53v4.59Zm8.17-13a8.22,8.22,0,0,0-5.36,1.68,7.73,7.73,0,0,0-2.67,3.88h16.06a6.08,6.08,0,0,0-2.57-4A9,9,0,0,0,141.23,173.27Z"/><path class="cls-1" d="M200.69,188a16.46,16.46,0,0,1-5.53,9.74c-2.9,2.48-6.79,3.71-11.64,3.71a20.62,20.62,0,0,1-7-1.17,16.44,16.44,0,0,1-5.67-3.36,15.49,15.49,0,0,1-3.78-5.43,18.65,18.65,0,0,1-1.37-7.34v-.83a19.22,19.22,0,0,1,1.37-7.41,16.43,16.43,0,0,1,9.51-9.2,19.62,19.62,0,0,1,7-1.24q7.15,0,11.57,3.71a16.29,16.29,0,0,1,5.6,9.75l-8.52,2.2a8.82,8.82,0,0,0-2.61-5.22,8.35,8.35,0,0,0-6.17-2.2,9,9,0,0,0-3.51.69,8.72,8.72,0,0,0-2.88,2,9.16,9.16,0,0,0-1.95,3.09,11,11,0,0,0-.73,4.08v.41a10.52,10.52,0,0,0,.73,4,8.41,8.41,0,0,0,1.95,2.92,8.17,8.17,0,0,0,2.88,1.75,10.42,10.42,0,0,0,3.51.58,8.46,8.46,0,0,0,6.07-2,9.45,9.45,0,0,0,2.71-5.35Z"/><path class="cls-2" d="M78.75,27l-.65-3.19h.07a2.13,2.13,0,0,0,1.17-2.79h0l2.47-1.63c.13.13.26.2.32.33l-3,7.34a1,1,0,0,0-.33-.06m.07-11.64L81.29,17a2.26,2.26,0,0,0,0,1.62h0l-2.47,1.63a2.18,2.18,0,0,0-2.86-.2l-1.3-1.17a2,2,0,0,0,0-2.21L76,15.53a2.41,2.41,0,0,0,1.3.46,2,2,0,0,0,1.56-.59m-6.31-5.33.39-.19,2.67,2.73a2,2,0,0,0-.26,2h0c.06.13.06.2.13.33l-1.3,1.17a2.14,2.14,0,0,0-2.54-.07l-2.21-2.21a2.14,2.14,0,0,0-.06-2.53l1.23-1.43a2.08,2.08,0,0,0,2,.19m6.7,4.62A2.14,2.14,0,0,0,78,11.89H78l.65-3.31A.89.89,0,0,0,79,8.52l3,7.53c-.13.07-.26.2-.39.26h0ZM57.5,8.84c.26-.13,1-.52,1.17-1.17l2.92.59a2.63,2.63,0,0,0,.33,1.23l-2.67,2.66A2.13,2.13,0,0,0,58,11.77Zm15.92.45a2.36,2.36,0,0,0,.39-1.36l2.86-.65a2,2,0,0,0,1.17,1.11l-.65,3.31a3.49,3.49,0,0,0-.84.13A1.6,1.6,0,0,0,76,12Zm-5-5.13,1.69,2.41A2.15,2.15,0,0,0,70,9.36l-1.24,1.43a2.23,2.23,0,0,0-2.21,0l-1.1-1.24a2.18,2.18,0,0,0-.2-2.86l1.63-2.47a1.88,1.88,0,0,0,1.56-.06M58.8,6.89V6.5l7-3c.13.13.26.32.39.45L64.52,6.37a2.13,2.13,0,0,0-2.8,1.17ZM69.07,3.71a1.65,1.65,0,0,0,.26-.39h0L76.54,6V6.5l-2.86.72a2.11,2.11,0,0,0-2.79-1.11h-.07ZM67.51.07a2.15,2.15,0,0,0-2.08,1.75,2,2,0,0,0,0,.91l-7,3a1.57,1.57,0,0,0-.32-.39,2.17,2.17,0,0,0-3.06,3.06c.07.06.13.13.2.13a15,15,0,0,0-3.06,7.73v1.56A15.53,15.53,0,0,0,67.77,33.34h0a11.72,11.72,0,0,0,1.56-.13A15.32,15.32,0,0,0,77.26,30c0,.07.06.07.06.13a1.84,1.84,0,1,0,2.6-2.6.83.83,0,0,0-.26-.19L82.72,20a2.14,2.14,0,0,0,1-4.16h-.07a1.51,1.51,0,0,0-.52-.06.89.89,0,0,0-.39.06l-3-7.54a2.17,2.17,0,1,0-2.27-3.7,1.82,1.82,0,0,0-.72.71L69.59,2.53A2.09,2.09,0,0,0,67.9.07c-.13,0-.26-.07-.39-.07h0Z"/><path class="cls-2" d="M99,22A15.52,15.52,0,0,0,85,38.54a5.84,5.84,0,0,1-2.86,5.4,6,6,0,0,1-3.12.84,6.1,6.1,0,0,1-3-.84,15.47,15.47,0,0,0-8.25-2.41c-.59,0-1.24.07-1.82.13a15.5,15.5,0,0,0,1.82,30.88h0a10.13,10.13,0,0,0,1.49-.07,15.53,15.53,0,0,0,14-14,17,17,0,0,0,0-2.47,5.82,5.82,0,0,1,2.86-5.39,5.72,5.72,0,0,1,3.12-.85,5.45,5.45,0,0,1,3,.85,15.46,15.46,0,0,0,8.25,2.4c.59,0,1.24,0,1.82-.06A15.53,15.53,0,0,0,100.46,22,10.57,10.57,0,0,0,99,22"/><path class="cls-2" d="M131.66,41.6a15.56,15.56,0,0,0-14,16.57,5.87,5.87,0,0,1-2.8,5.33l-.06.07a5.82,5.82,0,0,1-3.12.84,6.1,6.1,0,0,1-3-.84,15.48,15.48,0,0,0-8.26-2.41,13.17,13.17,0,0,0-1.69.07A15.53,15.53,0,0,0,85,77.74,5.93,5.93,0,0,1,79,84a6.11,6.11,0,0,1-3-.85,15.46,15.46,0,0,0-8.25-2.4,15.75,15.75,0,0,0-1.82.13A15.52,15.52,0,0,0,67.7,111.8a10.76,10.76,0,0,0,1.5-.07,15.46,15.46,0,0,0,13.91-14,17,17,0,0,0,0-2.47A5.8,5.8,0,0,1,86,89.89l.06-.06A5.75,5.75,0,0,1,89.15,89a5.45,5.45,0,0,1,3,.85,15.47,15.47,0,0,0,8.26,2.4c.58,0,1.17-.06,1.75-.06a15.3,15.3,0,0,0,13.72-16.51,5.91,5.91,0,0,1,6-6.24,5.53,5.53,0,0,1,3,.84,15.47,15.47,0,0,0,8.25,2.41c.59,0,1.24-.07,1.82-.13a15.53,15.53,0,0,0-1.82-30.94,4.87,4.87,0,0,0-1.43,0"/></g></g></svg>